<svg width="18" height="22" viewBox="0 0 18 22" fill="none" xmlns="http://www.w3.org/2000/svg">
<path fill-rule="evenodd" clip-rule="evenodd" d="M2.25736 1.75736C3.38258 0.632141 4.9087 0 6.5 0H11C11.7879 0 12.5681 0.155195 13.2961 0.456723C14.0241 0.758251 14.6855 1.20021 15.2426 1.75736C15.7998 2.31451 16.2417 2.97595 16.5433 3.7039C16.8448 4.43185 17 5.21207 17 6C17 6.55228 16.5523 7 16 7C15.4477 7 15 6.55228 15 6C15 5.47471 14.8965 4.95457 14.6955 4.46927C14.4945 3.98396 14.1999 3.54301 13.8284 3.17157C13.457 2.80014 13.016 2.5055 12.5307 2.30448C12.0454 2.10346 11.5253 2 11 2H6.5C5.43913 2 4.42172 2.42143 3.67157 3.17157C2.92143 3.92172 2.5 4.93913 2.5 6C2.5 7.06087 2.92143 8.07828 3.67157 8.82843C4.42172 9.57857 5.43913 10 6.5 10H12C13.5913 10 15.1174 10.6321 16.2426 11.7574C17.3679 12.8826 18 14.4087 18 16C18 17.5913 17.3679 19.1174 16.2426 20.2426C15.1174 21.3679 13.5913 22 12 22H6C4.4087 22 2.88258 21.3679 1.75736 20.2426C0.632141 19.1174 0 17.5913 0 16C0 15.4477 0.447715 15 1 15C1.55228 15 2 15.4477 2 16C2 17.0609 2.42143 18.0783 3.17157 18.8284C3.92172 19.5786 4.93913 20 6 20H12C13.0609 20 14.0783 19.5786 14.8284 18.8284C15.5786 18.0783 16 17.0609 16 16C16 14.9391 15.5786 13.9217 14.8284 13.1716C14.0783 12.4214 13.0609 12 12 12H6.5C4.9087 12 3.38258 11.3679 2.25736 10.2426C1.13214 9.11742 0.5 7.5913 0.5 6C0.5 4.4087 1.13214 2.88258 2.25736 1.75736Z" fill="#574F4D"/>
</svg>
